<?xml version="1.0" standalone="no"?>
<!DOCTYPE svg PUBLIC "-//W3C//DTD SVG 20010904//EN"
 "http://www.w3.org/TR/2001/REC-SVG-20010904/DTD/svg10.dtd">
<svg version="1.0" xmlns="http://www.w3.org/2000/svg"
 width="512.000000pt" height="512.000000pt" viewBox="0 0 512.000000 512.000000"
 preserveAspectRatio="xMidYMid meet">

<g transform="translate(0.000000,512.000000) scale(0.100000,-0.100000)"
fill="#000000" stroke="none">
<path d="M2315 5109 c-582 -55 -1146 -321 -1560 -734 -622 -623 -880 -1498
-695 -2360 70 -327 248 -710 460 -989 672 -886 1813 -1243 2846 -891 436 149
857 439 1152 793 535 644 723 1462 521 2264 -34 136 -90 299 -142 411 l-37 79
60 71 c72 85 141 215 172 323 31 109 31 313 0 426 -24 89 -83 212 -125 263
-35 43 -76 47 -112 10 -34 -33 -31 -58 14 -134 106 -177 127 -399 55 -589
-109 -291 -420 -477 -723 -434 -159 23 -291 92 -404 211 -76 81 -116 147 -153
256 -25 71 -28 94 -28 205 0 111 3 134 28 205 37 109 77 175 153 256 199 211
482 272 754 163 48 -18 96 -34 108 -34 56 0 82 87 38 128 -27 25 -114 63 -207
88 -91 25 -309 25 -400 0 -130 -36 -244 -95 -346 -182 l-63 -53 -78 36 c-375
173 -857 253 -1288 212z m580 -163 c208 -31 451 -99 622 -176 l73 -33 -29 -51
c-16 -28 -39 -78 -51 -112 l-22 -61 -106 44 c-139 58 -304 105 -467 134 -186
34 -521 34 -708 0 -461 -81 -847 -281 -1172 -606 -629 -629 -807 -1551 -459
-2376 76 -181 222 -418 324 -529 43 -46 87 -53 120 -20 36 36 26 75 -39 159
-475 616 -564 1420 -231 2110 306 633 909 1056 1612 1131 330 35 714 -27 1014
-164 l81 -37 6 -107 c13 -217 93 -401 241 -547 150 -149 332 -230 548 -242
l107 -6 37 -81 c106 -233 174 -546 174 -807 1 -776 -443 -1481 -1142 -1819
-688 -332 -1494 -244 -2109 231 -56 44 -84 59 -107 59 -57 0 -90 -58 -62 -110
5 -10 52 -50 103 -88 286 -216 596 -350 953 -413 186 -33 521 -33 707 0 461
81 847 281 1172 606 325 325 525 711 606 1172 34 187 34 522 0 708 -28 161
-76 327 -134 467 l-44 106 61 22 c34 12 84 35 112 51 l51 29 31 -69 c79 -175
148 -421 179 -630 24 -164 23 -495 -1 -656 -78 -519 -319 -996 -691 -1370
-183 -185 -417 -352 -650 -465 -355 -174 -657 -244 -1050 -244 -227 0 -348 13
-550 61 -802 189 -1454 781 -1723 1565 -228 663 -151 1413 206 2007 110 182
208 307 367 467 159 159 278 254 453 361 277 171 638 296 952 332 52 6 111 13
130 15 70 8 408 -4 505 -18z"/>
<path d="M1284 3296 c-17 -8 -34 -21 -38 -31 -3 -9 -6 -150 -6 -314 l0 -298
23 -21 c31 -29 72 -28 102 3 24 23 25 30 25 140 l0 115 80 0 c67 0 83 3 100
20 25 25 26 71 1 101 -17 21 -30 24 -100 27 l-81 4 0 59 0 59 89 0 c85 0 91 1
110 26 36 46 22 93 -33 114 -40 15 -235 12 -272 -4z"/>
<path d="M1985 3297 c-73 -25 -122 -56 -168 -107 -190 -212 -52 -557 232 -578
175 -12 325 98 368 271 50 207 -104 410 -321 423 -43 2 -86 -1 -111 -9z m170
-156 c22 -10 55 -34 72 -54 142 -161 -46 -402 -237 -304 -70 35 -103 85 -108
161 -3 49 0 71 16 102 51 99 160 139 257 95z"/>
<path d="M2789 3297 c-103 -29 -181 -96 -228 -197 -22 -46 -26 -69 -26 -145 0
-79 3 -97 28 -145 37 -72 96 -131 165 -166 51 -26 67 -29 152 -29 89 0 99 2
158 34 75 41 125 94 161 170 22 47 26 70 26 141 0 71 -4 94 -27 142 -33 72
-104 142 -173 174 -66 30 -170 40 -236 21z m177 -162 c57 -28 87 -63 104 -122
47 -157 -116 -301 -268 -238 -167 71 -159 313 13 373 50 17 98 13 151 -13z"/>
<path d="M3389 3271 c-24 -19 -24 -20 -27 -278 -5 -394 -10 -383 161 -383 181
0 256 39 319 168 31 63 33 72 33 177 0 98 -3 116 -27 167 -14 31 -45 74 -67
96 -59 57 -111 72 -252 72 -100 0 -120 -3 -140 -19z m276 -153 c41 -32 65 -93
65 -168 0 -125 -54 -190 -157 -190 l-53 0 0 53 c0 30 -3 115 -7 190 l-6 137
65 0 c52 0 71 -4 93 -22z"/>
<path d="M999 2496 c-88 -31 -139 -101 -139 -190 0 -93 40 -132 200 -198 62
-26 109 -52 117 -65 14 -21 13 -25 -15 -53 -23 -22 -40 -30 -67 -30 -44 0 -97
21 -137 55 -37 31 -78 32 -106 2 -87 -92 125 -235 295 -199 114 24 184 102
184 206 0 30 -6 67 -15 84 -19 36 -79 90 -120 107 -176 72 -186 77 -186 95 0
51 89 65 164 25 62 -33 99 -32 125 1 29 37 26 61 -11 98 -64 64 -202 93 -289
62z"/>
<path d="M1677 2499 c-9 -5 -23 -22 -31 -37 -29 -57 -216 -560 -216 -581 0
-29 43 -71 73 -71 36 0 63 28 85 85 l20 50 111 3 112 3 26 -60 c35 -80 76
-100 127 -60 17 14 26 30 26 50 0 25 -183 529 -213 584 -22 42 -78 58 -120 34z
m50 -397 c-27 -2 -51 -1 -53 1 -4 4 10 47 36 112 l12 30 27 -70 27 -70 -49 -3z"/>
<path d="M2213 2500 c-12 -5 -26 -18 -32 -29 -7 -13 -11 -125 -11 -316 l0
-296 25 -24 c13 -14 36 -25 50 -25 14 0 37 11 50 25 24 23 25 30 25 140 l0
115 78 0 c93 0 122 18 122 75 0 54 -36 75 -126 75 l-74 0 0 60 0 60 88 0 c80
0 91 2 110 23 29 31 28 72 -3 102 -23 24 -29 25 -152 24 -70 0 -138 -4 -150
-9z"/>
<path d="M2743 2500 c-12 -5 -26 -18 -32 -29 -7 -13 -11 -125 -11 -316 l0
-296 25 -24 c23 -24 29 -25 165 -25 136 0 142 1 165 25 32 31 32 69 0 100 -22
23 -32 25 -115 25 l-90 0 0 59 0 59 86 3 c76 4 88 7 105 28 25 30 24 76 -1
101 -17 17 -33 20 -105 20 l-85 0 0 65 0 65 94 0 c90 0 96 1 115 26 34 43 26
86 -20 109 -32 17 -258 20 -296 5z"/>
<path d="M3240 2490 c-12 -12 -20 -33 -20 -54 0 -48 37 -76 101 -76 l49 0 0
-254 0 -255 26 -20 c43 -34 86 -26 109 20 12 22 15 77 15 269 l0 240 50 0 c86
0 127 64 79 124 l-20 26 -185 0 c-171 0 -185 -1 -204 -20z"/>
<path d="M3813 2484 c-36 -36 -28 -60 71 -212 l86 -131 0 -145 c0 -144 0 -145
26 -165 43 -34 86 -26 109 20 11 20 15 64 15 163 l0 135 85 130 c94 145 103
176 59 210 -56 44 -86 27 -159 -89 -32 -49 -59 -90 -61 -90 -2 0 -27 35 -55
78 -29 42 -61 87 -72 100 -28 30 -71 29 -104 -4z"/>
<path d="M4545 4555 c-17 -7 -106 -90 -200 -184 l-169 -170 -68 65 c-61 59
-71 65 -104 62 -48 -4 -80 -43 -70 -85 4 -16 43 -63 95 -115 98 -97 133 -112
193 -84 49 24 415 394 424 429 5 21 1 36 -13 54 -25 35 -53 44 -88 28z"/>
</g>
</svg>
